<svg width="250" height="40" viewBox="0 0 250 40" fill="none" xmlns="http://www.w3.org/2000/svg">
<g clip-path="url(#clip0_99_5626)">
<g clip-path="url(#clip1_99_5626)">
<path d="M56.708 31.872C54.86 31.872 53.156 31.56 51.596 30.936C50.06 30.288 48.716 29.388 47.564 28.236C46.436 27.06 45.56 25.68 44.936 24.096C44.312 22.488 44 20.736 44 18.84C44 16.992 44.324 15.288 44.972 13.728C45.62 12.144 46.532 10.776 47.708 9.624C48.884 8.448 50.264 7.536 51.848 6.888C53.432 6.24 55.148 5.916 56.996 5.916C58.196 5.916 59.372 6.084 60.524 6.42C61.7 6.732 62.768 7.2 63.728 7.824C64.4598 8.28807 65.112 8.81852 65.6845 9.41533C66.0248 9.77012 66.0054 10.3245 65.6757 10.6892L63.5693 13.0197C63.1856 13.4441 62.5277 13.4567 62.0898 13.0885C61.7554 12.8073 61.4135 12.5525 61.064 12.324C60.464 11.892 59.816 11.568 59.12 11.352C58.448 11.112 57.728 10.992 56.96 10.992C55.928 10.992 54.956 11.184 54.044 11.568C53.156 11.952 52.376 12.492 51.704 13.188C51.032 13.86 50.492 14.688 50.084 15.672C49.7 16.632 49.508 17.7 49.508 18.876C49.508 20.076 49.7 21.168 50.084 22.152C50.468 23.112 51.008 23.94 51.704 24.636C52.4 25.308 53.228 25.836 54.188 26.22C55.172 26.58 56.252 26.76 57.428 26.76C58.196 26.76 58.94 26.652 59.66 26.436C60.38 26.22 61.04 25.92 61.64 25.536C61.8823 25.3869 62.1137 25.2288 62.3342 25.0616C62.855 24.6669 63.633 24.7441 63.9789 25.2985L65.528 27.7814C65.7628 28.1576 65.7258 28.6489 65.3947 28.944C64.8973 29.3872 64.2937 29.7992 63.584 30.18C62.624 30.708 61.544 31.128 60.344 31.44C59.144 31.728 57.932 31.872 56.708 31.872Z" fill="#3C424D"/>
<path d="M78.9723 31.872C77.0283 31.872 75.2883 31.452 73.7523 30.612C72.2403 29.748 71.0403 28.572 70.1523 27.084C69.2883 25.596 68.8563 23.892 68.8563 21.972C68.8563 20.052 69.2883 18.36 70.1523 16.896C71.0403 15.408 72.2403 14.232 73.7523 13.368C75.2883 12.504 77.0283 12.072 78.9723 12.072C80.8923 12.072 82.6083 12.504 84.1203 13.368C85.6563 14.232 86.8563 15.408 87.7203 16.896C88.5843 18.36 89.0163 20.052 89.0163 21.972C89.0163 23.892 88.5843 25.596 87.7203 27.084C86.8563 28.572 85.6563 29.748 84.1203 30.612C82.6083 31.452 80.8923 31.872 78.9723 31.872ZM78.9723 27.408C79.9083 27.408 80.7483 27.18 81.4923 26.724C82.2363 26.244 82.8123 25.596 83.2203 24.78C83.6523 23.94 83.8683 23.004 83.8683 21.972C83.8683 20.916 83.6523 19.98 83.2203 19.164C82.8123 18.324 82.2363 17.676 81.4923 17.22C80.7483 16.74 79.9083 16.5 78.9723 16.5C78.0123 16.5 77.1603 16.74 76.4163 17.22C75.6723 17.7 75.0843 18.348 74.6523 19.164C74.2203 19.98 74.0163 20.916 74.0403 21.972C74.0163 23.004 74.2203 23.94 74.6523 24.78C75.0843 25.596 75.6723 26.244 76.4163 26.724C77.1603 27.18 78.0123 27.408 78.9723 27.408Z" fill="#3C424D"/>
<path d="M94.2584 31.512C93.7061 31.512 93.2584 31.0643 93.2584 30.512V5.872C93.2584 5.31972 93.7061 4.872 94.2584 4.872H97.3704C97.9227 4.872 98.3704 5.31972 98.3704 5.872V30.512C98.3704 31.0643 97.9227 31.512 97.3704 31.512H94.2584Z" fill="#3C424D"/>
<path d="M112.423 31.872C110.479 31.872 108.739 31.452 107.203 30.612C105.691 29.748 104.491 28.572 103.603 27.084C102.739 25.596 102.307 23.892 102.307 21.972C102.307 20.052 102.739 18.36 103.603 16.896C104.491 15.408 105.691 14.232 107.203 13.368C108.739 12.504 110.479 12.072 112.423 12.072C114.343 12.072 116.059 12.504 117.571 13.368C119.107 14.232 120.307 15.408 121.171 16.896C122.035 18.36 122.467 20.052 122.467 21.972C122.467 23.892 122.035 25.596 121.171 27.084C120.307 28.572 119.107 29.748 117.571 30.612C116.059 31.452 114.343 31.872 112.423 31.872ZM112.423 27.408C113.359 27.408 114.199 27.18 114.943 26.724C115.687 26.244 116.263 25.596 116.671 24.78C117.103 23.94 117.319 23.004 117.319 21.972C117.319 20.916 117.103 19.98 116.671 19.164C116.263 18.324 115.687 17.676 114.943 17.22C114.199 16.74 113.359 16.5 112.423 16.5C111.463 16.5 110.611 16.74 109.867 17.22C109.123 17.7 108.535 18.348 108.103 19.164C107.671 19.98 107.467 20.916 107.491 21.972C107.467 23.004 107.671 23.94 108.103 24.78C108.535 25.596 109.123 26.244 109.867 26.724C110.611 27.18 111.463 27.408 112.423 27.408Z" fill="#3C424D"/>
<path d="M127.673 31.512C127.121 31.512 126.673 31.0643 126.673 30.512V13.468C126.673 12.9157 127.121 12.468 127.673 12.468H130.634C131.175 12.468 131.618 12.898 131.633 13.4386L131.745 17.2477C131.757 17.6408 131.249 17.8065 131.027 17.4822V17.4822C130.96 17.3846 130.94 17.262 130.976 17.1493C131.267 16.2362 131.716 15.4078 132.325 14.664C132.973 13.848 133.729 13.212 134.593 12.756C135.481 12.3 136.405 12.072 137.365 12.072C137.773 12.072 138.169 12.108 138.553 12.18C138.589 12.1868 138.625 12.1937 138.66 12.2008C139.16 12.3004 139.434 12.807 139.313 13.3023L138.419 16.9727C138.285 17.5232 137.664 17.8178 137.113 17.688V17.688C136.705 17.568 136.285 17.508 135.853 17.508C135.277 17.508 134.737 17.616 134.233 17.832C133.753 18.024 133.333 18.312 132.973 18.696C132.613 19.056 132.325 19.488 132.109 19.992C131.917 20.496 131.821 21.048 131.821 21.648V30.512C131.821 31.0643 131.373 31.512 130.821 31.512H127.673Z" fill="#3C424D"/>
<path d="M144.538 31.512C143.986 31.512 143.538 31.0643 143.538 30.512V7.312C143.538 6.75971 143.986 6.312 144.538 6.312H147.911C148.258 6.312 148.581 6.4924 148.763 6.78848L156.794 19.8587C157.166 20.464 156.725 21.2417 156.015 21.2338V21.2338C155.311 21.226 154.887 20.4513 155.259 19.8539L163.404 6.78311C163.587 6.49009 163.908 6.312 164.253 6.312H167.414C167.966 6.312 168.414 6.75972 168.414 7.312V30.512C168.414 31.0643 167.966 31.512 167.414 31.512H164.122C163.57 31.512 163.122 31.0643 163.122 30.512V22.872C163.122 20.712 163.17 18.768 163.266 17.04C163.349 15.8452 163.466 14.6562 163.618 13.4729C163.674 13.0414 164.258 12.9769 164.413 13.3831V13.3831C164.461 13.5094 164.447 13.6511 164.373 13.7648L157.405 24.5738C157.221 24.8594 156.905 25.032 156.565 25.032H155.283C154.941 25.032 154.623 24.8573 154.439 24.5687L147.607 13.828C147.538 13.7194 147.523 13.5851 147.565 13.4634V13.4634C147.708 13.05 148.294 13.1039 148.349 13.538C148.486 14.6243 148.586 15.7316 148.65 16.86C148.77 18.54 148.83 20.544 148.83 22.872V30.512C148.83 31.0643 148.382 31.512 147.83 31.512H144.538Z" fill="#3C424D"/>
<path d="M181.736 31.872C180.152 31.872 178.724 31.44 177.452 30.576C176.18 29.712 175.172 28.536 174.428 27.048C173.684 25.56 173.312 23.856 173.312 21.936C173.312 20.016 173.684 18.324 174.428 16.86C175.196 15.372 176.228 14.208 177.524 13.368C178.82 12.504 180.296 12.072 181.952 12.072C182.888 12.072 183.74 12.216 184.508 12.504C185.3 12.768 185.984 13.14 186.56 13.62C187.16 14.1 187.664 14.652 188.072 15.276C188.35 15.7019 188.573 16.1502 188.739 16.6208C188.851 16.9346 188.574 17.2317 188.246 17.177V17.177C188.021 17.1395 187.856 16.9448 187.856 16.7167V13.468C187.856 12.9157 188.303 12.468 188.856 12.468H191.932C192.484 12.468 192.932 12.9157 192.932 13.468V30.512C192.932 31.0643 192.484 31.512 191.932 31.512H188.784C188.231 31.512 187.784 31.0643 187.784 30.512V27.3839C187.784 27.1323 187.975 26.9221 188.226 26.8986V26.8986C188.567 26.8666 188.832 27.1882 188.699 27.5042C188.518 27.9318 188.285 28.3438 188 28.74C187.568 29.34 187.028 29.88 186.38 30.36C185.756 30.816 185.048 31.188 184.256 31.476C183.464 31.74 182.624 31.872 181.736 31.872ZM183.14 27.444C184.1 27.444 184.94 27.216 185.66 26.76C186.38 26.304 186.932 25.668 187.316 24.852C187.724 24.012 187.928 23.04 187.928 21.936C187.928 20.856 187.724 19.908 187.316 19.092C186.932 18.276 186.38 17.64 185.66 17.184C184.94 16.704 184.1 16.464 183.14 16.464C182.204 16.464 181.376 16.704 180.656 17.184C179.96 17.64 179.408 18.276 179 19.092C178.592 19.908 178.388 20.856 178.388 21.936C178.388 23.04 178.592 24.012 179 24.852C179.408 25.668 179.96 26.304 180.656 26.76C181.376 27.216 182.204 27.444 183.14 27.444Z" fill="#3C424D"/>
<path d="M207.093 39.792C205.581 39.792 204.093 39.564 202.629 39.108C201.504 38.776 200.542 38.3661 199.743 37.8782C199.335 37.6295 199.216 37.1074 199.426 36.6789L200.351 34.7931C200.621 34.2419 201.321 34.0634 201.868 34.3413C202.076 34.447 202.294 34.5479 202.521 34.644C203.145 34.908 203.793 35.112 204.465 35.256C205.161 35.4 205.869 35.472 206.589 35.472C207.837 35.472 208.857 35.28 209.649 34.896C210.465 34.512 211.077 33.936 211.485 33.168C211.893 32.424 212.097 31.464 212.097 30.288V27.4683C212.097 27.2144 212.33 27.0246 212.579 27.0764V27.0764C212.791 27.1207 212.932 27.3272 212.871 27.5356C212.682 28.1832 212.316 28.7887 211.773 29.352C211.125 30 210.309 30.528 209.325 30.936C208.341 31.32 207.333 31.512 206.301 31.512C204.525 31.512 202.953 31.104 201.585 30.288C200.217 29.472 199.137 28.344 198.345 26.904C197.553 25.464 197.157 23.808 197.157 21.936C197.157 20.016 197.541 18.324 198.309 16.86C199.101 15.372 200.169 14.208 201.513 13.368C202.881 12.504 204.429 12.072 206.157 12.072C206.877 12.072 207.561 12.156 208.209 12.324C208.881 12.492 209.493 12.732 210.045 13.044C210.621 13.332 211.125 13.668 211.557 14.052C212.013 14.412 212.385 14.808 212.673 15.24C212.868 15.5324 213.013 15.8249 213.109 16.1173C213.186 16.3505 213.033 16.5856 212.797 16.6508V16.6508C212.485 16.7367 212.18 16.496 212.19 16.1731L212.281 13.435C212.299 12.8958 212.741 12.468 213.28 12.468H216.209C216.761 12.468 217.209 12.9157 217.209 13.468V30.072C217.209 31.632 216.981 33.012 216.525 34.212C216.069 35.412 215.397 36.42 214.509 37.236C213.645 38.076 212.577 38.712 211.305 39.144C210.057 39.576 208.653 39.792 207.093 39.792ZM207.237 27.408C208.245 27.408 209.121 27.18 209.865 26.724C210.633 26.268 211.221 25.632 211.629 24.816C212.037 24 212.241 23.04 212.241 21.936C212.241 20.856 212.037 19.908 211.629 19.092C211.221 18.252 210.633 17.604 209.865 17.148C209.121 16.692 208.245 16.464 207.237 16.464C206.253 16.464 205.377 16.704 204.609 17.184C203.865 17.64 203.289 18.276 202.881 19.092C202.473 19.908 202.269 20.856 202.269 21.936C202.269 23.016 202.473 23.976 202.881 24.816C203.289 25.632 203.865 26.268 204.609 26.724C205.377 27.18 206.253 27.408 207.237 27.408Z" fill="#3C424D"/>
<path d="M224.08 31.512C223.528 31.512 223.08 31.0643 223.08 30.512V13.468C223.08 12.9157 223.528 12.468 224.08 12.468H227.192C227.744 12.468 228.192 12.9157 228.192 13.468V30.512C228.192 31.0643 227.744 31.512 227.192 31.512H224.08ZM225.6 8.544C224.616 8.544 223.848 8.304 223.296 7.824C222.744 7.344 222.468 6.66 222.468 5.772C222.468 4.956 222.744 4.296 223.296 3.792C223.872 3.264 224.64 3 225.6 3C226.584 3 227.352 3.252 227.904 3.756C228.456 4.236 228.732 4.908 228.732 5.772C228.732 6.612 228.444 7.284 227.868 7.788C227.316 8.292 226.56 8.544 225.6 8.544Z" fill="#3C424D"/>
<path d="M242.292 31.872C240.468 31.872 238.836 31.44 237.396 30.576C235.956 29.712 234.816 28.536 233.976 27.048C233.16 25.56 232.752 23.868 232.752 21.972C232.752 20.1 233.16 18.42 233.976 16.932C234.816 15.42 235.956 14.232 237.396 13.368C238.836 12.504 240.468 12.072 242.292 12.072C243.996 12.072 245.556 12.384 246.972 13.008C248.12 13.5138 249.063 14.1774 249.8 14.9986C250.104 15.3369 250.081 15.8441 249.791 16.1942L248.292 18.0002C247.877 18.5003 247.098 18.4749 246.6 18.0572C246.478 17.9547 246.35 17.8557 246.216 17.76C245.712 17.376 245.16 17.076 244.56 16.86C243.984 16.644 243.384 16.536 242.76 16.536C241.776 16.536 240.9 16.776 240.132 17.256C239.388 17.712 238.8 18.348 238.368 19.164C237.936 19.98 237.72 20.916 237.72 21.972C237.72 23.004 237.936 23.928 238.368 24.744C238.824 25.536 239.436 26.184 240.204 26.688C240.972 27.168 241.836 27.408 242.796 27.408C243.42 27.408 244.008 27.324 244.56 27.156C245.112 26.964 245.628 26.688 246.108 26.328C246.287 26.2001 246.46 26.0632 246.627 25.9171C247.104 25.4998 247.853 25.4917 248.254 25.982L249.738 27.7934C250.036 28.1569 250.045 28.6839 249.715 29.0183C248.963 29.7798 248.013 30.419 246.864 30.936C245.424 31.56 243.9 31.872 242.292 31.872Z" fill="#3C424D"/>
</g>
<g clip-path="url(#clip2_99_5626)">
<path d="M33.2582 6.74173C33.7464 6.25358 33.7489 5.45886 33.2312 5.00214C31.5788 3.54442 29.6947 2.36781 27.6537 1.52239C25.2271 0.517298 22.6264 -1.64184e-05 20 -1.61878e-05C17.3735 -1.59572e-05 14.7728 0.517299 12.3463 1.52239C9.9198 2.52749 7.71502 4.00068 5.85785 5.85785L20 20L33.2582 6.74173Z" fill="#FF6060"/>
<path d="M5.85785 5.85788C4.00068 7.71505 2.52749 9.91984 1.52239 12.3463C0.517299 14.7729 -1.53395e-05 17.3736 -1.52341e-05 20C-1.51287e-05 22.6265 0.517299 25.2272 1.52239 27.6537C2.52749 30.0802 4.00068 32.285 5.85785 34.1422L20 20L5.85785 5.85788Z" fill="#FFE240"/>
<path d="M5.85785 34.1421C7.71502 35.9993 9.9198 37.4725 12.3463 38.4776C14.7728 39.4827 17.3735 40 20 40C22.6264 40 25.2271 39.4827 27.6537 38.4776C29.6947 37.6322 31.5788 36.4556 33.2312 34.9978C33.7489 34.5411 33.7464 33.7464 33.2582 33.2582L20 20L5.85785 34.1421Z" fill="#489EFF"/>
</g>
</g>
<defs>
<clipPath id="clip0_99_5626">
<rect width="250" height="40" fill="white"/>
</clipPath>
<clipPath id="clip1_99_5626">
<rect width="206" height="37" fill="white" transform="translate(44 3)"/>
</clipPath>
<clipPath id="clip2_99_5626">
<rect width="40" height="40" fill="white"/>
</clipPath>
</defs>
</svg>
