<svg width="240" height="240" viewBox="0 0 240 240" fill="none" xmlns="http://www.w3.org/2000/svg">
<g clip-path="url(#clip0_99_7548)">
<g clip-path="url(#clip1_99_7548)">
<path d="M199.55 40.4505C202.478 37.5216 202.493 32.7533 199.387 30.013C189.473 21.2666 178.168 14.207 165.922 9.13448C151.363 3.10392 135.759 3.00335e-05 120 3.06657e-05C104.241 3.12979e-05 88.6371 3.10392 74.078 9.13448C59.5189 15.165 46.2902 24.0042 35.1472 35.1472L120 120L199.55 40.4505Z" fill="#FF6060"/>
<path d="M35.1472 35.1472C24.0041 46.2902 15.165 59.5189 9.13445 74.078C3.10388 88.6371 -6.20615e-06 104.241 -5.57394e-06 120C-4.94174e-06 135.759 3.10388 151.363 9.13445 165.922C15.165 180.481 24.0041 193.71 35.1472 204.853L120 120L35.1472 35.1472Z" fill="#FFE240"/>
<path d="M35.1472 204.853C46.2902 215.996 59.5189 224.835 74.078 230.866C88.637 236.896 104.241 240 120 240C135.759 240 151.363 236.896 165.922 230.866C178.168 225.793 189.473 218.733 199.387 209.987C202.493 207.247 202.478 202.478 199.549 199.549L120 120L35.1472 204.853Z" fill="#489EFF"/>
</g>
</g>
<defs>
<clipPath id="clip0_99_7548">
<rect width="240" height="240" fill="white"/>
</clipPath>
<clipPath id="clip1_99_7548">
<rect width="240" height="240" fill="white"/>
</clipPath>
</defs>
</svg>
